<?xml version="1.0" encoding="UTF-8"?>
<svg version="1.1" xmlns="http://www.w3.org/2000/svg" width="59" height="58">
<path d="M0 0 C19.47 0 38.94 0 59 0 C59 19.14 59 38.28 59 58 C39.53 58 20.06 58 0 58 C0 38.86 0 19.72 0 0 Z " fill="#1D335B" transform="translate(0,0)"/>
<path d="M0 0 C5.17542357 1.95192032 9.04010121 5.33246729 12 10 C14.01148822 14.5258485 14.90232124 19.09247736 14 24 C11.46316257 29.67119442 7.36666289 35.36802443 1.6953125 38.1171875 C-1.22642885 39.07416365 -3.55776787 39.26689935 -6.625 39.25 C-8.03652344 39.25773437 -8.03652344 39.25773437 -9.4765625 39.265625 C-12 39 -12 39 -15 37 C-18.31086259 37.28274138 -18.31086259 37.28274138 -21 39 C-22.66617115 39.04063832 -24.33388095 39.042721 -26 39 C-26.11719175 35.16692831 -26.18758077 31.33432392 -26.25 27.5 C-26.28351562 26.42234375 -26.31703125 25.3446875 -26.3515625 24.234375 C-26.44709693 16.40055139 -25.46673677 10.85436768 -20.1484375 4.94140625 C-19.56320313 4.48636719 -18.97796875 4.03132812 -18.375 3.5625 C-17.78460938 3.08941406 -17.19421875 2.61632812 -16.5859375 2.12890625 C-11.73641932 -1.32309068 -5.70165065 -0.59350516 0 0 Z " fill="#4683EB" transform="translate(36,10)"/>
<path d="M0 0 C5.03359633 2.3843351 8.49996787 5.99993573 11 11 C11.82229571 17.49748412 10.77260907 22.62098965 7 28 C2.63449278 32.15255565 -0.63277696 33.14079154 -6.5625 33.125 C-7.53316406 33.12757812 -8.50382812 33.13015625 -9.50390625 33.1328125 C-12 33 -12 33 -14 32 C-13.34 30.68 -12.68 29.36 -12 28 C-11.41992188 28.04640625 -10.83984375 28.0928125 -10.2421875 28.140625 C-4.58769173 28.40188883 -1.47108042 27.81677597 3 24 C5.81454595 19.77818108 5.80684081 15.95969791 5 11 C2.74942433 7.91201326 2.74942433 7.91201326 0 6 C-0.33 5.67 -0.66 5.34 -1 5 C-5.30193823 4.53780829 -8.96164387 4.53605364 -12.9375 6.3125 C-17.22602141 9.82129025 -17.50944579 13.35917619 -18.2421875 18.52734375 C-19.17279226 21.56380155 -20.63537826 22.93693933 -23 25 C-23.62305059 12.3659186 -23.62305059 12.3659186 -21.375 7.4375 C-20.59125 6.633125 -19.8075 5.82875 -19 5 C-18.195625 4.05125 -17.39125 3.1025 -16.5625 2.125 C-11.89245581 -1.56564874 -5.57882057 -0.767532 0 0 Z " fill="#1B315B" transform="translate(36,13)"/>
<path d="M0 0 C2.8100346 1.79363911 4.50940468 3.01880935 6 6 C6.41204834 10.63554388 5.87454146 13.30416098 3 17 C-0.41936792 19.56452594 -3.85555785 19.15940162 -8 19 C-7.67 17.35 -7.34 15.7 -7 14 C-4.69 13.34 -2.38 12.68 0 12 C0.16687448 9.58354218 0.16687448 9.58354218 0 7 C-0.66 6.34 -1.32 5.68 -2 5 C-5.30683466 5.28983269 -5.30683466 5.28983269 -8 7 C-8.21915986 8.51931095 -8.42516833 10.04052625 -8.625 11.5625 C-9.72500103 17.36250542 -12.41592165 21.29598732 -17 25 C-19.2265625 25.71484375 -19.2265625 25.71484375 -21 26 C-21.3125 23.8125 -21.3125 23.8125 -21 21 C-18.5625 18.25 -18.5625 18.25 -16 16 C-14.46444046 14.46444046 -14.81104644 12.8820586 -14.6875 10.75 C-14.25947905 6.41456203 -13.19717101 4.10028704 -10 1 C-6.79826746 -0.60086627 -3.47422941 -0.49917089 0 0 Z " fill="#1A315A" transform="translate(34,20)"/>
<path d="M0 0 C0.33 0 0.66 0 1 0 C1 3.96 1 7.92 1 12 C1.66 12.33 2.32 12.66 3 13 C2.67 15.31 2.34 17.62 2 20 C2.9075 19.38125 3.815 18.7625 4.75 18.125 C7.14948817 16.55610389 9.40961612 15.19556179 12 14 C12 17 12 17 11 19 C21.77072372 19.72603571 21.77072372 19.72603571 31 15 C32.88805221 12.74496065 34.41692171 10.4945476 36 8 C36.69140625 9.74609375 36.69140625 9.74609375 37 12 C34.00507197 16.98516774 29.57733014 21.28389842 24 23 C14.27972028 23.85314685 14.27972028 23.85314685 10 21 C7.56282742 21.27034634 7.56282742 21.27034634 5 22 C3.35 22.33 1.7 22.66 0 23 C0 15.41 0 7.82 0 0 Z " fill="#4987F2" transform="translate(11,26)"/>
<path d="M0 0 C2.4375 0.8125 2.4375 0.8125 4.4375 2.8125 C4.6875 5.3125 4.6875 5.3125 4.4375 7.8125 C2.4375 9.8125 2.4375 9.8125 -0.6875 9.9375 C-1.63625 9.89625 -2.585 9.855 -3.5625 9.8125 C-3.8925 11.4625 -4.2225 13.1125 -4.5625 14.8125 C-1.5925 15.3075 -1.5925 15.3075 1.4375 15.8125 C1.4375 16.1425 1.4375 16.4725 1.4375 16.8125 C-1.5325 16.8125 -4.5025 16.8125 -7.5625 16.8125 C-7.8925 16.1525 -8.2225 15.4925 -8.5625 14.8125 C-8.27375 14.27625 -7.985 13.74 -7.6875 13.1875 C-6.5645562 10.81684087 -6.34699562 9.32420452 -6.125 6.75 C-5.5625 2.8125 -5.5625 2.8125 -4.3125 0.75 C-2.5625 -0.1875 -2.5625 -0.1875 0 0 Z " fill="#4A89F6" transform="translate(30.5625,24.1875)"/>
<path d="M0 0 C0.69140625 1.74609375 0.69140625 1.74609375 1 4 C-1.99492803 8.98516774 -6.42266986 13.28389842 -12 15 C-15.6822829 15.21930494 -19.31685155 15.17694841 -23 15 C-23 14.01 -23 13.02 -23 12 C-21.93072266 11.96132813 -21.93072266 11.96132813 -20.83984375 11.921875 C-14.42445121 11.54195943 -10.15803624 10.92010754 -5 7 C-3.10277855 4.75036845 -1.5840155 2.49602443 0 0 Z " fill="#4886F1" transform="translate(47,34)"/>
<path d="M0 0 C3 0 3 0 6 1 C5.01 2.485 5.01 2.485 4 4 C3.47415099 6.49986952 3.11635358 8.99848483 2.7578125 11.52734375 C1.82720774 14.56380155 0.36462174 15.93693933 -2 18 C-2.054138 15.75026553 -2.09285491 13.50015617 -2.125 11.25 C-2.14820313 9.99703125 -2.17140625 8.7440625 -2.1953125 7.453125 C-2.01537302 4.27179508 -1.68998582 2.63478104 0 0 Z " fill="#1F3A6B" transform="translate(15,20)"/>
<path d="M0 0 C0.33 0.66 0.66 1.32 1 2 C0.70351562 2.55171875 0.40703125 3.1034375 0.1015625 3.671875 C-1.40812482 6.86256169 -1.42995135 9.7391243 -1.625 13.25 C-1.69976562 14.51328125 -1.77453125 15.7765625 -1.8515625 17.078125 C-1.90054687 18.04234375 -1.94953125 19.0065625 -2 20 C-2.33 20 -2.66 20 -3 20 C-3.33 23.63 -3.66 27.26 -4 31 C-4.33 31 -4.66 31 -5 31 C-5.08751413 27.12514365 -5.14056435 23.25054357 -5.1875 19.375 C-5.21263672 18.28058594 -5.23777344 17.18617187 -5.26367188 16.05859375 C-5.35726296 5.76357408 -5.35726296 5.76357408 -2 1 C-1.34 0.67 -0.68 0.34 0 0 Z " fill="#3F76D6" transform="translate(15,18)"/>
<path d="M0 0 C4.75 0.75 4.75 0.75 7 3 C7.125 5.625 7.125 5.625 7 8 C5.02 8.99 5.02 8.99 3 10 C3 9.34 3 8.68 3 8 C2.01 7.67 1.02 7.34 0 7 C0.185625 6.21625 0.37125 5.4325 0.5625 4.625 C1.25962266 2.02910225 1.25962266 2.02910225 0 0 Z " fill="#3664B6" transform="translate(28,24)"/>
<path d="M0 0 C0 0.66 0 1.32 0 2 C-2.64458379 3.32229189 -4.67761301 3.09677194 -7.625 3.0625 C-8.62789062 3.05347656 -9.63078125 3.04445313 -10.6640625 3.03515625 C-11.43492188 3.02355469 -12.20578125 3.01195312 -13 3 C-13 2.01 -13 1.02 -13 0 C-11.20909747 -0.19466332 -9.41723495 -0.38051213 -7.625 -0.5625 C-6.12839844 -0.71912109 -6.12839844 -0.71912109 -4.6015625 -0.87890625 C-2 -1 -2 -1 0 0 Z " fill="#437DE1" transform="translate(37,46)"/>
<path d="M0 0 C0.66 0.99 1.32 1.98 2 3 C1.34 3.66 0.68 4.32 0 5 C-0.45811675 6.97235333 -0.45811675 6.97235333 -0.625 9.125 C-0.810625 11.043125 -0.810625 11.043125 -1 13 C-1.33 13 -1.66 13 -2 13 C-2 10.69 -2 8.38 -2 6 C-2.66 6 -3.32 6 -4 6 C-4.66 7.32 -5.32 8.64 -6 10 C-6.36666667 4.5 -6.36666667 4.5 -4.625 2.125 C-3 1 -3 1 -1 1 C-0.67 0.67 -0.34 0.34 0 0 Z " fill="#203B6D" transform="translate(26,22)"/>
<path d="M0 0 C2.375 0.3125 2.375 0.3125 5 1 C7.20914 4.31371 7.22481553 5.3446021 7.125 9.1875 C7.10695313 10.08855469 7.08890625 10.98960938 7.0703125 11.91796875 C7.03550781 12.94857422 7.03550781 12.94857422 7 14 C4.52786546 11.52786546 4.33049526 9.30417912 3.57421875 5.9765625 C2.86371512 3.53088335 1.71279829 1.86850723 0 0 Z " fill="#4886F2" transform="translate(35,20)"/>
<path d="M0 0 C0.99 0.33 1.98 0.66 3 1 C3.125 8.75 3.125 8.75 2 11 C1.34 11 0.68 11 0 11 C0 7.37 0 3.74 0 0 Z " fill="#182D54" transform="translate(14,25)"/>
<path d="M0 0 C0.66 0.33 1.32 0.66 2 1 C0.6581656 5.02550319 -1.4227573 5.88285636 -5 8 C-5.66 8 -6.32 8 -7 8 C-5.50902342 4.2047869 -3.24299151 2.38957269 0 0 Z " fill="#4580E7" transform="translate(21,11)"/>
<path d="M0 0 C1.65 0.33 3.3 0.66 5 1 C5 1.66 5 2.32 5 3 C6.32 3.33 7.64 3.66 9 4 C7.54536519 4.38909985 6.08608793 4.76088029 4.625 5.125 C3.81289063 5.33382813 3.00078125 5.54265625 2.1640625 5.7578125 C1.44992188 5.83773438 0.73578125 5.91765625 0 6 C-0.66 5.34 -1.32 4.68 -2 4 C-1.34 2.68 -0.68 1.36 0 0 Z " fill="#1C3460" transform="translate(23,13)"/>
<path d="M0 0 C2.31 0 4.62 0 7 0 C5 2 5 2 2 3 C3.32 3.66 4.64 4.32 6 5 C3.69 5 1.38 5 -1 5 C-0.67 3.35 -0.34 1.7 0 0 Z " fill="#1F3A6B" transform="translate(27,34)"/>
<path d="M0 0 C1.43655854 -0.08131463 2.8744483 -0.13933559 4.3125 -0.1875 C5.51326172 -0.23970703 5.51326172 -0.23970703 6.73828125 -0.29296875 C9.47851584 0.06198392 10.29171079 0.89366282 12 3 C8.18243176 4.37432457 4.92744671 3.67975039 1 3 C0.67 2.01 0.34 1.02 0 0 Z " fill="#3E74D4" transform="translate(26,17)"/>
<path d="M0 0 C1.98 0 3.96 0 6 0 C5.19152271 1.16945792 4.37810888 2.33550461 3.5625 3.5 C3.11003906 4.1496875 2.65757812 4.799375 2.19140625 5.46875 C1.79824219 5.9740625 1.40507812 6.479375 1 7 C0.67 7 0.34 7 0 7 C0 4.69 0 2.38 0 0 Z " fill="#F1F2F5" transform="translate(0,0)"/>
<path d="M0 0 C0.1953125 6.0546875 0.1953125 6.0546875 0 8 C-0.66 8.66 -1.32 9.32 -2 10 C-2.66 9.67 -3.32 9.34 -4 9 C-3.4140625 2.84765625 -3.4140625 2.84765625 -3 1 C-1 0 -1 0 0 0 Z " fill="#3D72D2" transform="translate(50,26)"/>
<path d="M0 0 C0.99 0.33 1.98 0.66 3 1 C3 3.31 3 5.62 3 8 C1.68 7.67 0.36 7.34 -1 7 C-0.67 4.69 -0.34 2.38 0 0 Z " fill="#182D52" transform="translate(21,27)"/>
<path d="M0 0 C3.3 0 6.6 0 10 0 C10 0.33 10 0.66 10 1 C8.453125 1.12375 8.453125 1.12375 6.875 1.25 C2.47024613 2.10253301 0.51487063 3.34241489 -3 6 C-2 4 -1 2 0 0 Z " fill="#4B8BF7" transform="translate(24,18)"/>
<path d="M0 0 C0.33 0 0.66 0 1 0 C1.32332002 4.63425362 0.8644432 7.28683289 -2 11 C-2.99 11.33 -3.98 11.66 -5 12 C-3.79618552 9.50638429 -2.54571278 7.31856917 -1 5 C-0.61500109 3.34450469 -0.27206865 1.6777567 0 0 Z " fill="#223F74" transform="translate(39,26)"/>
<path d="M0 0 C2.125 0.375 2.125 0.375 4 1 C3.34 1 2.68 1 2 1 C1.67 2.65 1.34 4.3 1 6 C0.01 6.33 -0.98 6.66 -2 7 C-2.125 4.625 -2.125 4.625 -2 2 C-1.34 1.34 -0.68 0.68 0 0 Z " fill="#4581E8" transform="translate(27,25)"/>
<path d="M0 0 C3.875 4.75 3.875 4.75 5 7 C3.35 7 1.7 7 0 7 C0 4.69 0 2.38 0 0 Z " fill="#DFE2E7" transform="translate(0,51)"/>
<path d="M0 0 C0 0.99 0 1.98 0 3 C-4.29 2.67 -8.58 2.34 -13 2 C-13 1.67 -13 1.34 -13 1 C-11.20843648 0.83222817 -9.4167455 0.66581706 -7.625 0.5 C-6.62726562 0.4071875 -5.62953125 0.314375 -4.6015625 0.21875 C-2 0 -2 0 0 0 Z " fill="#3A6CC6" transform="translate(38,11)"/>
</svg>
